<?xml version="1.0" encoding="UTF-8" standalone="no"?>
<!-- Created with Inkscape (http://www.inkscape.org/) -->

<svg
   version="1.1"
   id="svg9"
   width="443.63397"
   height="162.38602"
   viewBox="0 0 443.63399 162.38601"
   sodipodi:docname="UIWare.svg"
   inkscape:version="1.1.1 (3bf5ae0d25, 2021-09-20)"
   xmlns:inkscape="http://www.inkscape.org/namespaces/inkscape"
   xmlns:sodipodi="http://sodipodi.sourceforge.net/DTD/sodipodi-0.dtd"
   xmlns="http://www.w3.org/2000/svg"
   xmlns:svg="http://www.w3.org/2000/svg">
  <defs
     id="defs13" />
  <sodipodi:namedview
     id="namedview11"
     pagecolor="#ffffff"
     bordercolor="#666666"
     borderopacity="1.0"
     inkscape:pageshadow="2"
     inkscape:pageopacity="0.0"
     inkscape:pagecheckerboard="0"
     showgrid="false"
     inkscape:snap-text-baseline="false"
     inkscape:zoom="1.0289025"
     inkscape:cx="129.26395"
     inkscape:cy="26.727508"
     inkscape:window-width="1440"
     inkscape:window-height="837"
     inkscape:window-x="-8"
     inkscape:window-y="-8"
     inkscape:window-maximized="1"
     inkscape:current-layer="g15" />
  <g
     inkscape:groupmode="layer"
     inkscape:label="Image"
     id="g15"
     transform="translate(-19.263384,-94.551326)">
    <g
       id="g1585">
      <path
         style="fill:#000000;fill-opacity:1;stroke:none;stroke-width:0.781;stroke-miterlimit:4;stroke-dasharray:none"
         d="M 19.263384,175.74434 V 94.551326 H 92.25903 462.89736 v 81.193014 81.193 H 92.25903 19.263384 Z"
         id="path1097"
         sodipodi:nodetypes="ccccccccc" />
      <g
         aria-label="Ware"
         id="text7411"
         style="font-size:97.5878px;letter-spacing:0px;word-spacing:0px;stroke-width:2.43969">
        <path
           d="m 254.21442,145.05583 -9.67301,4.47913 -17.77356,52.41532 13.19913,3.38317 -36.69073,6.86164 -10.95956,-28.11367 -11.19782,25.15935 -28.39958,-1.52481 9.67301,-4.00262 -7.71935,-56.22735 -8.76765,-4.09792 49.65161,-4.38383 -11.43607,7.0046 -7.0046,41.8846 22.82449,-33.30755 14.62864,32.92635 2.14427,-40.50275 -9.81596,-5.09858 z"
           style="-inkscape-font-specification:'Snap ITC';fill:#ffffff"
           id="path828" />
        <path
           d="m 273.56043,169.45278 q -1.2389,1.42951 -1.81071,3.04962 -0.5718,1.62011 -0.5718,3.76437 0,4.19323 2.71607,7.05224 2.76371,2.81137 6.76634,2.81137 1.42951,0 2.95431,-0.5718 1.52481,-0.61946 3.09727,-1.76306 -3.04961,-5.62274 -6.38514,-9.19651 -3.28787,-3.62142 -6.76634,-5.14623 z m 33.35521,-9.95891 -7.0046,3.19257 1.42951,39.93094 5.47979,4.19323 -20.96613,2.62076 3.57377,-14.53333 q -4.38383,7.19519 -10.14951,10.86426 -5.71804,3.66907 -12.48438,3.66907 -8.10055,0 -13.67563,-6.62339 -5.52744,-6.67104 -5.52744,-16.487 0,-12.53202 5.95629,-20.58492 5.95629,-8.10055 15.00984,-8.10055 6.86164,0 12.05553,3.62142 5.24153,3.57377 8.8153,10.72131 l -3.00197,-14.72394 z"
           style="-inkscape-font-specification:'Snap ITC';fill:#ffffff"
           id="path830" />
        <path
           d="m 366.62146,158.30261 -7.52875,30.25794 q -3.33552,-4.09793 -7.24285,-6.09924 -3.90732,-2.00131 -8.5294,-2.00131 -5.90863,0 -9.72066,3.85967 -3.76437,3.81202 -3.76437,9.72066 0,3.71672 1.76306,7.00459 1.76306,3.24022 5.76569,6.86165 l -30.54384,1.62011 5.43213,-4.47913 2.66842,-42.12286 -7.52875,-3.14492 24.11105,-1.28656 -4.00263,10.86427 q 5.38449,-5.62274 10.24482,-8.3388 4.90798,-2.71607 9.67301,-2.71607 3.85967,0 7.09989,1.62011 3.24022,1.57246 5.47978,4.52678 z"
           style="-inkscape-font-specification:'Snap ITC';fill:#ffffff"
           id="path832" />
        <path
           d="m 377.48572,175.69497 q 1.52481,1.23891 3.57377,1.95366 2.04896,0.6671 4.19323,0.6671 3.76437,0 6.14688,-2.19191 2.38252,-2.19191 2.38252,-5.62273 0,-1.66776 -0.4765,-3.00197 -0.47651,-1.33421 -1.47716,-2.52547 -5.09858,0.76241 -8.72001,3.47847 -3.57377,2.66842 -5.62273,7.24285 z m 47.41204,33.97466 -4.28853,-7.90995 q -6.33748,4.00262 -12.67497,5.95628 -6.33749,1.95367 -13.10383,1.95367 -13.19914,0 -21.15673,-6.52809 -7.90995,-6.57574 -7.90995,-17.39236 0,-5.71804 2.14426,-11.00722 2.19191,-5.33683 6.14689,-9.29181 3.81202,-3.81202 8.8153,-5.76568 5.05093,-1.95366 11.10252,-1.95366 11.57902,0 19.10777,5.00328 7.52874,5.00328 7.52874,12.57968 0,7.62404 -6.95694,12.77027 -6.90929,5.14624 -17.34471,5.14624 -2.57311,0 -4.81267,-0.38121 -2.23957,-0.42885 -4.28853,-1.2389 4.47913,3.04961 8.76765,4.52677 4.33618,1.42951 8.91061,1.42951 5.57508,0 10.24481,-2.47781 4.66973,-2.47782 8.00525,-7.1952 z"
           style="-inkscape-font-specification:'Snap ITC';fill:#ffffff"
           id="path834" />
      </g>
      <path
         style="fill:#ffffff;fill-opacity:1;stroke:none;stroke-width:0.781;stroke-miterlimit:4;stroke-dasharray:none"
         d="m 121.65247,186.08904 c 0.13984,-22.71321 -0.0592,-33.40627 -0.63458,-34.09963 -0.60609,-0.7303 -0.52434,-1.62032 0.29513,-3.2131 1.61417,-3.1374 3.74678,-8.67526 2.80256,-7.27759 -0.4351,0.64408 -4.1115,6.88319 -8.16977,13.86469 l -7.37866,12.69361 v 25.23548 c 0,13.8795 0.24769,25.48317 0.55043,25.78591 0.30273,0.30272 3.20109,0.4491 6.44079,0.32529 l 5.89037,-0.22519 z m -39.010733,21.96452 c 2.15444,-3.75713 8.17345,-14.18909 13.375563,-23.18215 l 9.45841,-16.351 -0.21086,-15.65776 -0.21086,-15.65779 -5.34001,-0.2325 c -3.26481,-0.14224 -5.767803,0.12247 -6.440803,0.68111 -0.9066,0.75243 -1.10078,5.46487 -1.10078,26.71485 0,22.91278 -0.14465,25.9611 -1.29205,27.22899 -1.89677,2.09589 -15.02849,2.10494 -16.92289,0.0122 -1.12616,-1.24439 -1.30643,-4.62752 -1.48722,-27.91011 l -0.20574,-26.4941 h -6.24562 -6.24562 l -0.2154,27.32458 c -0.24065,30.53021 -0.0622,31.84135 4.92894,36.22367 3.1966,2.80663 7.01961,3.97226 13.04742,3.97812 4.85398,0.005 5.15223,0.36083 3.30068,3.94133 -1.47822,2.85856 -2.7703,6.21214 -2.39342,6.21214 0.15567,0 2.0458,-3.07401 4.20024,-6.83114 z"
         id="path1097-2"
         sodipodi:nodetypes="ssssscssscscscccccsscscccsscsscc" />
    </g>
  </g>
</svg>
